<?xml version="1.0" standalone="no"?>
<!DOCTYPE svg PUBLIC "-//W3C//DTD SVG 20010904//EN"
 "http://www.w3.org/TR/2001/REC-SVG-20010904/DTD/svg10.dtd">
<svg version="1.0" xmlns="http://www.w3.org/2000/svg"
 width="1024.000000pt" height="1024.000000pt" viewBox="0 0 1024.000000 1024.000000"
 preserveAspectRatio="xMidYMid meet">

<g transform="translate(0.000000,1024.000000) scale(0.100000,-0.100000)"
fill="#000000" stroke="none">
<path d="M6475 6499 c-44 -11 -131 -31 -193 -46 -110 -25 -113 -27 -110 -52 3
-24 8 -27 55 -31 63 -7 90 -30 103 -86 5 -21 10 -326 10 -677 0 -751 6 -712
-109 -740 -46 -11 -51 -14 -51 -39 l0 -28 275 0 275 0 0 30 c0 24 -5 31 -27
36 -67 15 -95 28 -111 52 -16 24 -17 90 -20 814 -1 433 -6 788 -10 787 -4 -1
-43 -10 -87 -20z"/>
<path d="M1855 6014 c-675 -608 -655 -589 -651 -627 l3 -32 92 -3 91 -3 0
-750 c0 -681 1 -751 16 -745 9 3 434 6 945 6 l929 0 0 748 0 748 85 -4 85 -4
0 34 c0 30 -8 42 -62 89 -64 55 -336 301 -688 619 -339 308 -365 330 -380 330
-8 -1 -217 -183 -465 -406z m513 123 c26 -24 81 -75 122 -113 41 -38 165 -150
275 -248 110 -99 228 -207 263 -240 l62 -60 0 -701 c0 -385 -3 -710 -6 -722
l-6 -23 -754 0 -754 0 1 738 0 737 220 200 c441 401 523 475 527 475 2 0 24
-19 50 -43z"/>
<path d="M2020 5043 l0 -163 140 0 140 0 -2 161 -3 161 -138 2 -137 1 0 -162z"/>
<path d="M2354 5201 c-2 -2 -4 -76 -4 -163 l0 -158 146 0 c129 0 145 2 140 16
-3 9 -6 82 -6 164 l0 148 -136 -1 c-74 -1 -137 -4 -140 -6z"/>
<path d="M2020 4625 l0 -175 140 0 140 0 0 175 0 175 -140 0 -140 0 0 -175z"/>
<path d="M2350 4625 l0 -175 140 0 140 0 1 35 c1 19 2 42 2 50 0 8 -1 71 -2
140 l-1 125 -140 0 -140 0 0 -175z"/>
<path d="M3740 6373 c0 -27 -2 -135 -4 -241 l-3 -193 29 3 c27 3 31 10 62 100
70 205 153 258 404 258 l92 0 0 -660 c0 -724 2 -703 -59 -734 -23 -12 -130
-36 -163 -36 -5 0 -8 -16 -8 -35 l0 -35 355 0 355 0 0 35 c0 32 -3 35 -37 40
-79 14 -110 26 -134 51 l-24 26 -3 675 -2 676 122 -5 c234 -10 307 -65 383
-288 19 -56 25 -65 48 -68 l27 -3 0 240 0 241 -720 0 -720 0 0 -47z"/>
<path d="M8211 5905 c-35 -13 -80 -36 -100 -52 -84 -68 -130 -181 -117 -292
18 -154 118 -245 351 -321 123 -40 181 -69 219 -108 74 -78 36 -210 -74 -259
-20 -9 -66 -16 -105 -17 -59 -1 -79 4 -128 28 -81 41 -149 112 -189 196 -26
55 -37 69 -53 67 -19 -2 -20 -9 -20 -137 l0 -134 40 -23 c22 -13 76 -35 120
-50 68 -23 98 -27 200 -27 87 -1 135 4 175 16 124 39 223 127 252 227 21 74
14 179 -15 237 -50 98 -134 155 -330 225 -139 50 -177 70 -214 113 -38 42 -48
82 -34 133 26 95 139 136 267 98 62 -18 133 -87 185 -177 27 -48 40 -62 55
-60 10 2 19 5 19 5 1 1 -2 58 -5 127 l-5 125 -45 22 c-130 65 -332 82 -449 38z"/>
<path d="M5469 5896 c-222 -78 -364 -282 -376 -541 -7 -135 6 -200 58 -304
170 -340 685 -377 899 -66 33 48 37 67 17 84 -11 8 -23 2 -55 -29 -150 -142
-371 -160 -520 -41 -79 62 -142 222 -142 358 l0 63 365 0 c325 0 366 2 372 16
3 9 1 53 -6 97 -26 189 -143 327 -316 371 -90 24 -216 21 -296 -8z m213 -82
c87 -29 152 -119 167 -230 6 -41 4 -54 -7 -59 -7 -3 -119 -5 -248 -5 l-234 0
0 28 c0 37 28 118 56 162 65 104 160 141 266 104z"/>
<path d="M7193 5901 c-90 -33 -155 -74 -218 -137 -229 -229 -235 -642 -12
-851 192 -180 532 -186 721 -14 16 14 48 52 72 85 35 46 42 62 33 72 -17 21
-24 18 -93 -36 -86 -67 -145 -92 -238 -98 -221 -14 -372 143 -386 401 l-5 97
368 0 368 0 -6 83 c-13 187 -107 324 -266 388 -80 32 -264 38 -338 10z m196
-86 c23 -8 57 -26 76 -41 45 -34 93 -133 97 -199 l3 -50 -247 -3 c-137 -1
-248 0 -248 4 0 26 36 137 55 169 47 80 125 133 196 135 15 0 45 -7 68 -15z"/>
<path d="M5732 4416 c-53 -51 -50 -67 7 -41 25 11 51 15 69 12 46 -9 57 11 25
45 -15 15 -33 28 -40 28 -8 0 -35 -20 -61 -44z"/>
<path d="M5640 4291 c-154 -47 -235 -235 -162 -377 48 -94 123 -138 233 -139
64 0 84 4 134 30 200 103 185 406 -24 480 -45 16 -138 19 -181 6z m141 -54
c70 -47 105 -131 96 -232 -8 -103 -60 -177 -133 -191 -54 -10 -123 30 -151 86
-29 59 -38 141 -24 212 26 122 127 182 212 125z"/>
<path d="M8320 4281 c-49 -25 -80 -75 -80 -125 0 -68 28 -100 127 -147 101
-47 133 -73 133 -105 0 -120 -191 -123 -240 -4 -20 47 -30 35 -30 -35 0 -62 1
-66 28 -76 54 -21 168 -23 218 -4 62 23 104 81 104 142 0 84 -33 119 -157 167
-70 26 -113 62 -113 92 0 7 11 26 24 41 20 23 32 28 68 28 55 0 91 -23 120
-78 l23 -42 3 49 c5 80 -1 91 -59 104 -72 17 -129 15 -169 -7z"/>
<path d="M4015 4280 c3 -5 13 -10 20 -10 29 0 35 -40 35 -239 0 -168 -2 -202
-16 -215 -8 -9 -22 -16 -30 -16 -8 0 -14 -4 -14 -10 0 -12 197 -14 204 -1 3 4
-6 13 -19 19 l-25 12 0 209 c0 115 3 216 6 225 3 9 12 16 20 16 8 0 14 5 14
10 0 6 -40 10 -101 10 -64 0 -98 -4 -94 -10z"/>
<path d="M4540 4282 c0 -4 14 -13 30 -19 l30 -11 0 -207 0 -206 -25 -23 c-13
-13 -22 -26 -18 -29 10 -10 131 -8 137 2 3 4 -6 13 -19 19 l-25 12 0 167 c0
92 4 163 8 158 5 -6 33 -66 62 -135 62 -148 98 -220 108 -220 4 0 27 46 51
103 25 56 62 138 83 182 l38 80 -1 -185 -1 -185 81 -3 c75 -3 108 9 61 21 -33
9 -40 50 -40 240 0 149 3 187 16 205 8 12 22 22 30 22 8 0 14 5 14 10 0 7 -28
10 -76 8 l-76 -3 -59 -135 c-32 -74 -66 -151 -75 -170 l-16 -35 -13 25 c-8 14
-42 91 -77 173 l-62 147 -83 0 c-46 0 -83 -4 -83 -8z"/>
<path d="M6205 4280 c3 -5 12 -10 20 -10 27 0 54 -53 141 -270 82 -207 89
-220 113 -220 24 0 31 13 99 183 94 231 123 290 150 302 40 18 23 25 -58 25
-75 0 -105 -11 -60 -23 13 -3 20 -14 20 -28 0 -23 -105 -307 -119 -322 -10
-10 -135 329 -126 342 3 6 15 11 26 11 10 0 19 5 19 10 0 6 -45 10 -116 10
-74 0 -113 -4 -109 -10z"/>
<path d="M6990 4282 c0 -4 10 -12 23 -17 22 -10 22 -13 25 -227 2 -209 2 -218
-18 -230 -11 -7 -20 -16 -20 -21 0 -4 84 -6 187 -5 l188 3 19 53 c18 50 15 85
-5 50 -24 -43 -134 -76 -206 -62 -37 7 -44 30 -36 123 l6 63 65 -4 c47 -3 67
-9 74 -21 18 -34 28 -16 28 54 l0 71 -31 -27 c-27 -22 -39 -26 -88 -23 l-56 3
2 82 c1 45 4 87 8 93 9 15 110 12 150 -4 19 -8 41 -28 50 -45 25 -50 37 -39
29 27 -3 31 -8 60 -11 65 -6 9 -383 9 -383 -1z"/>
<path d="M7700 4282 c0 -4 10 -12 23 -17 22 -10 22 -13 25 -231 l2 -222 -25
-6 c-56 -14 -21 -26 75 -26 101 0 121 7 75 28 l-25 12 2 217 c3 215 3 218 26
228 42 18 22 25 -78 25 -55 0 -100 -3 -100 -8z"/>
</g>
</svg>
